<?xml version="1.0" encoding="UTF-8" standalone="no"?><svg xmlns="http://www.w3.org/2000/svg" xmlns:xlink="http://www.w3.org/1999/xlink" contentStyleType="text/css" height="1092px" preserveAspectRatio="none" style="width:1274px;height:1092px;background:#FFFFFF;" version="1.1" viewBox="0 0 1274 1092" width="1274px" zoomAndPan="magnify"><defs/><g><rect fill="#FFFFFF" height="911.5469" style="stroke:#181818;stroke-width:1.0;" width="10" x="34" y="91.2969"/><rect fill="#FFFFFF" height="911.5469" style="stroke:#181818;stroke-width:1.0;" width="10" x="305" y="91.2969"/><rect fill="#FFFFFF" height="29.1328" style="stroke:#181818;stroke-width:1.0;" width="10" x="601" y="141.5625"/><rect fill="#FFFFFF" height="441.1406" style="stroke:#181818;stroke-width:1.0;" width="10" x="601" y="408.8906"/><rect fill="#FFFFFF" height="794.0156" style="stroke:#181818;stroke-width:1.0;" width="10" x="1032" y="199.8281"/><rect fill="#FFFFFF" height="112.2031" style="stroke:#181818;stroke-width:1.0;" width="10" x="1142.5" y="535.5547"/><rect fill="none" height="750.8828" style="stroke:#000000;stroke-width:1.5;" width="1257" x="10" y="214.8281"/><rect fill="none" height="575.6094" style="stroke:#000000;stroke-width:1.5;" width="1010" x="247" y="326.3594"/><rect fill="none" height="223.5391" style="stroke:#000000;stroke-width:1.5;" width="696" x="551" y="468.1563"/><rect fill="none" height="90.2031" style="stroke:#000000;stroke-width:1.5;" width="676" x="561" y="550.5547"/><rect fill="none" height="116.2031" style="stroke:#000000;stroke-width:1.5;" width="521" x="561" y="705.6953"/><line style="stroke:#181818;stroke-width:0.5;stroke-dasharray:5.0,5.0;" x1="39" x2="39" y1="81.2969" y2="1011.8438"/><line style="stroke:#181818;stroke-width:0.5;stroke-dasharray:5.0,5.0;" x1="310" x2="310" y1="81.2969" y2="1011.8438"/><line style="stroke:#181818;stroke-width:0.5;stroke-dasharray:5.0,5.0;" x1="606" x2="606" y1="81.2969" y2="1011.8438"/><line style="stroke:#181818;stroke-width:0.5;stroke-dasharray:5.0,5.0;" x1="1037" x2="1037" y1="81.2969" y2="1011.8438"/><line style="stroke:#181818;stroke-width:0.5;stroke-dasharray:5.0,5.0;" x1="1147" x2="1147" y1="81.2969" y2="1011.8438"/><text fill="#000000" font-family="sans-serif" font-size="14" lengthAdjust="spacing" textLength="32" x="20" y="77.9951">User</text><ellipse cx="39" cy="13.5" fill="#E2E2F0" rx="8" ry="8" style="stroke:#181818;stroke-width:0.5;"/><path d="M39,21.5 L39,48.5 M26,29.5 L52,29.5 M39,48.5 L26,63.5 M39,48.5 L52,63.5 " fill="none" style="stroke:#181818;stroke-width:0.5;"/><text fill="#000000" font-family="sans-serif" font-size="14" lengthAdjust="spacing" textLength="32" x="20" y="1023.8389">User</text><ellipse cx="39" cy="1035.6406" fill="#E2E2F0" rx="8" ry="8" style="stroke:#181818;stroke-width:0.5;"/><path d="M39,1043.6406 L39,1070.6406 M26,1051.6406 L52,1051.6406 M39,1070.6406 L26,1085.6406 M39,1070.6406 L52,1085.6406 " fill="none" style="stroke:#181818;stroke-width:0.5;"/><rect fill="#E2E2F0" height="30.2969" rx="2.5" ry="2.5" style="stroke:#181818;stroke-width:0.5;" width="106" x="257" y="50"/><text fill="#000000" font-family="sans-serif" font-size="14" lengthAdjust="spacing" textLength="92" x="264" y="69.9951">User browser</text><rect fill="#E2E2F0" height="30.2969" rx="2.5" ry="2.5" style="stroke:#181818;stroke-width:0.5;" width="106" x="257" y="1010.8438"/><text fill="#000000" font-family="sans-serif" font-size="14" lengthAdjust="spacing" textLength="92" x="264" y="1030.8389">User browser</text><rect fill="#E2E2F0" height="30.2969" rx="2.5" ry="2.5" style="stroke:#181818;stroke-width:0.5;" width="70" x="571" y="50"/><text fill="#000000" font-family="sans-serif" font-size="14" lengthAdjust="spacing" textLength="56" x="578" y="69.9951">Overleaf</text><rect fill="#E2E2F0" height="30.2969" rx="2.5" ry="2.5" style="stroke:#181818;stroke-width:0.5;" width="70" x="571" y="1010.8438"/><text fill="#000000" font-family="sans-serif" font-size="14" lengthAdjust="spacing" textLength="56" x="578" y="1030.8389">Overleaf</text><rect fill="#E2E2F0" height="30.2969" rx="2.5" ry="2.5" style="stroke:#181818;stroke-width:0.5;" width="42" x="1016" y="50"/><text fill="#000000" font-family="sans-serif" font-size="14" lengthAdjust="spacing" textLength="28" x="1023" y="69.9951">CAS</text><rect fill="#E2E2F0" height="30.2969" rx="2.5" ry="2.5" style="stroke:#181818;stroke-width:0.5;" width="42" x="1016" y="1010.8438"/><text fill="#000000" font-family="sans-serif" font-size="14" lengthAdjust="spacing" textLength="28" x="1023" y="1030.8389">CAS</text><rect fill="#E2E2F0" height="30.2969" rx="2.5" ry="2.5" style="stroke:#181818;stroke-width:0.5;" width="159" x="1068" y="50"/><text fill="#000000" font-family="sans-serif" font-size="14" lengthAdjust="spacing" textLength="145" x="1075" y="69.9951">User resource server</text><rect fill="#E2E2F0" height="30.2969" rx="2.5" ry="2.5" style="stroke:#181818;stroke-width:0.5;" width="159" x="1068" y="1010.8438"/><text fill="#000000" font-family="sans-serif" font-size="14" lengthAdjust="spacing" textLength="145" x="1075" y="1030.8389">User resource server</text><rect fill="#FFFFFF" height="911.5469" style="stroke:#181818;stroke-width:1.0;" width="10" x="34" y="91.2969"/><rect fill="#FFFFFF" height="911.5469" style="stroke:#181818;stroke-width:1.0;" width="10" x="305" y="91.2969"/><rect fill="#FFFFFF" height="29.1328" style="stroke:#181818;stroke-width:1.0;" width="10" x="601" y="141.5625"/><rect fill="#FFFFFF" height="441.1406" style="stroke:#181818;stroke-width:1.0;" width="10" x="601" y="408.8906"/><rect fill="#FFFFFF" height="794.0156" style="stroke:#181818;stroke-width:1.0;" width="10" x="1032" y="199.8281"/><rect fill="#FFFFFF" height="112.2031" style="stroke:#181818;stroke-width:1.0;" width="10" x="1142.5" y="535.5547"/><polygon fill="#181818" points="293,108.4297,303,112.4297,293,116.4297,297,112.4297" style="stroke:#181818;stroke-width:1.0;"/><line style="stroke:#181818;stroke-width:1.0;" x1="44" x2="299" y1="112.4297" y2="112.4297"/><text fill="#000000" font-family="sans-serif" font-size="13" font-weight="bold" lengthAdjust="spacing" textLength="9" x="51" y="107.3638">1</text><text fill="#000000" font-family="sans-serif" font-size="13" lengthAdjust="spacing" textLength="224" x="64" y="107.3638">Click the Login through SSO button</text><polygon fill="#181818" points="589,137.5625,599,141.5625,589,145.5625,593,141.5625" style="stroke:#181818;stroke-width:1.0;"/><line style="stroke:#181818;stroke-width:1.0;" x1="315" x2="595" y1="141.5625" y2="141.5625"/><text fill="#000000" font-family="sans-serif" font-size="13" font-weight="bold" lengthAdjust="spacing" textLength="9" x="322" y="136.4966">2</text><text fill="#000000" font-family="sans-serif" font-size="13" lengthAdjust="spacing" textLength="162" x="335" y="136.4966">Initiate SSO login request</text><polygon fill="#181818" points="326,166.6953,316,170.6953,326,174.6953,322,170.6953" style="stroke:#181818;stroke-width:1.0;"/><line style="stroke:#181818;stroke-width:1.0;" x1="320" x2="605" y1="170.6953" y2="170.6953"/><text fill="#000000" font-family="sans-serif" font-size="13" font-weight="bold" lengthAdjust="spacing" textLength="9" x="332" y="165.6294">3</text><text fill="#000000" font-family="sans-serif" font-size="13" lengthAdjust="spacing" textLength="249" x="345" y="165.6294">302 Redirect to CAS authentication link</text><polygon fill="#181818" points="1020,195.8281,1030,199.8281,1020,203.8281,1024,199.8281" style="stroke:#181818;stroke-width:1.0;"/><line style="stroke:#181818;stroke-width:1.0;" x1="315" x2="1026" y1="199.8281" y2="199.8281"/><text fill="#000000" font-family="sans-serif" font-size="13" font-weight="bold" lengthAdjust="spacing" textLength="9" x="322" y="194.7622">4</text><text fill="#000000" font-family="sans-serif" font-size="13" lengthAdjust="spacing" textLength="283" x="335" y="194.7622">Request login page according to redirect link</text><path d="M10,214.8281 L74,214.8281 L74,221.9609 L64,231.9609 L10,231.9609 L10,214.8281 " fill="#EEEEEE" style="stroke:#000000;stroke-width:1.5;"/><rect fill="none" height="750.8828" style="stroke:#000000;stroke-width:1.5;" width="1257" x="10" y="214.8281"/><text fill="#000000" font-family="sans-serif" font-size="13" font-weight="bold" lengthAdjust="spacing" textLength="19" x="25" y="227.895">alt</text><text fill="#000000" font-family="sans-serif" font-size="11" font-weight="bold" lengthAdjust="spacing" textLength="374" x="89" y="227.0386">[In the redirection link, callback URL, client_ID are correct]</text><polygon fill="#181818" points="326,249.0938,316,253.0938,326,257.0938,322,253.0938" style="stroke:#181818;stroke-width:1.0;"/><line style="stroke:#181818;stroke-width:1.0;stroke-dasharray:2.0,2.0;" x1="320" x2="1031" y1="253.0938" y2="253.0938"/><text fill="#000000" font-family="sans-serif" font-size="13" font-weight="bold" lengthAdjust="spacing" textLength="9" x="332" y="248.0278">5</text><text fill="#000000" font-family="sans-serif" font-size="13" lengthAdjust="spacing" textLength="104" x="345" y="248.0278">Show login page</text><polygon fill="#181818" points="293,278.2266,303,282.2266,293,286.2266,297,282.2266" style="stroke:#181818;stroke-width:1.0;"/><line style="stroke:#181818;stroke-width:1.0;" x1="44" x2="299" y1="282.2266" y2="282.2266"/><text fill="#000000" font-family="sans-serif" font-size="13" font-weight="bold" lengthAdjust="spacing" textLength="9" x="51" y="277.1606">6</text><text fill="#000000" font-family="sans-serif" font-size="13" lengthAdjust="spacing" textLength="199" x="64" y="277.1606">Enter user name and password</text><polygon fill="#181818" points="1020,307.3594,1030,311.3594,1020,315.3594,1024,311.3594" style="stroke:#181818;stroke-width:1.0;"/><line style="stroke:#181818;stroke-width:1.0;" x1="315" x2="1026" y1="311.3594" y2="311.3594"/><text fill="#000000" font-family="sans-serif" font-size="13" font-weight="bold" lengthAdjust="spacing" textLength="9" x="322" y="306.2935">7</text><text fill="#000000" font-family="sans-serif" font-size="13" lengthAdjust="spacing" textLength="86" x="335" y="306.2935">Request login</text><path d="M247,326.3594 L311,326.3594 L311,333.4922 L301,343.4922 L247,343.4922 L247,326.3594 " fill="#EEEEEE" style="stroke:#000000;stroke-width:1.5;"/><rect fill="none" height="575.6094" style="stroke:#000000;stroke-width:1.5;" width="1010" x="247" y="326.3594"/><text fill="#000000" font-family="sans-serif" font-size="13" font-weight="bold" lengthAdjust="spacing" textLength="19" x="262" y="339.4263">alt</text><text fill="#000000" font-family="sans-serif" font-size="11" font-weight="bold" lengthAdjust="spacing" textLength="273" x="326" y="338.5698">[The user name and password are correct]</text><polygon fill="#181818" points="326,360.625,316,364.625,326,368.625,322,364.625" style="stroke:#181818;stroke-width:1.0;"/><line style="stroke:#181818;stroke-width:1.0;stroke-dasharray:2.0,2.0;" x1="320" x2="1031" y1="364.625" y2="364.625"/><text fill="#000000" font-family="sans-serif" font-size="13" font-weight="bold" lengthAdjust="spacing" textLength="9" x="332" y="359.5591">8</text><text fill="#000000" font-family="sans-serif" font-size="13" lengthAdjust="spacing" textLength="165" x="345" y="359.5591">Return authorization code</text><polygon fill="#181818" points="589,404.8906,599,408.8906,589,412.8906,593,408.8906" style="stroke:#181818;stroke-width:1.0;"/><line style="stroke:#181818;stroke-width:1.0;" x1="315" x2="595" y1="408.8906" y2="408.8906"/><text fill="#000000" font-family="sans-serif" font-size="13" font-weight="bold" lengthAdjust="spacing" textLength="9" x="322" y="396.2583">9</text><text fill="#000000" font-family="sans-serif" font-size="13" lengthAdjust="spacing" textLength="224" x="335" y="388.6919">Send a request to the callback URL</text><text fill="#000000" font-family="sans-serif" font-size="13" lengthAdjust="spacing" textLength="207" x="335" y="403.8247">With code and other parameters</text><polygon fill="#181818" points="1020,449.1563,1030,453.1563,1020,457.1563,1024,453.1563" style="stroke:#181818;stroke-width:1.0;"/><line style="stroke:#181818;stroke-width:1.0;" x1="611" x2="1026" y1="453.1563" y2="453.1563"/><text fill="#000000" font-family="sans-serif" font-size="13" font-weight="bold" lengthAdjust="spacing" textLength="18" x="618" y="440.5239">10</text><text fill="#000000" font-family="sans-serif" font-size="13" lengthAdjust="spacing" textLength="375" x="640" y="432.9575">Use the received code and your own client_id,client_Secret</text><text fill="#000000" font-family="sans-serif" font-size="13" lengthAdjust="spacing" textLength="243" x="648" y="448.0903">and others requests for access_Token</text><path d="M551,468.1563 L615,468.1563 L615,475.2891 L605,485.2891 L551,485.2891 L551,468.1563 " fill="#EEEEEE" style="stroke:#000000;stroke-width:1.5;"/><rect fill="none" height="223.5391" style="stroke:#000000;stroke-width:1.5;" width="696" x="551" y="468.1563"/><text fill="#000000" font-family="sans-serif" font-size="13" font-weight="bold" lengthAdjust="spacing" textLength="19" x="566" y="481.2231">alt</text><text fill="#000000" font-family="sans-serif" font-size="11" font-weight="bold" lengthAdjust="spacing" textLength="247" x="630" y="480.3667">[Code and other parameters are legal]</text><polygon fill="#181818" points="622,502.4219,612,506.4219,622,510.4219,618,506.4219" style="stroke:#181818;stroke-width:1.0;"/><line style="stroke:#181818;stroke-width:1.0;stroke-dasharray:2.0,2.0;" x1="616" x2="1031" y1="506.4219" y2="506.4219"/><text fill="#000000" font-family="sans-serif" font-size="13" font-weight="bold" lengthAdjust="spacing" textLength="18" x="628" y="501.356">11</text><text fill="#000000" font-family="sans-serif" font-size="13" lengthAdjust="spacing" textLength="136" x="650" y="501.356">Return Access_Token</text><polygon fill="#181818" points="1130.5,531.5547,1140.5,535.5547,1130.5,539.5547,1134.5,535.5547" style="stroke:#181818;stroke-width:1.0;"/><line style="stroke:#181818;stroke-width:1.0;" x1="611" x2="1136.5" y1="535.5547" y2="535.5547"/><text fill="#000000" font-family="sans-serif" font-size="13" font-weight="bold" lengthAdjust="spacing" textLength="18" x="618" y="530.4888">12</text><text fill="#000000" font-family="sans-serif" font-size="13" lengthAdjust="spacing" textLength="343" x="640" y="530.4888">According to Access_Token requests user information</text><path d="M561,550.5547 L625,550.5547 L625,557.6875 L615,567.6875 L561,567.6875 L561,550.5547 " fill="#EEEEEE" style="stroke:#000000;stroke-width:1.5;"/><rect fill="none" height="90.2031" style="stroke:#000000;stroke-width:1.5;" width="676" x="561" y="550.5547"/><text fill="#000000" font-family="sans-serif" font-size="13" font-weight="bold" lengthAdjust="spacing" textLength="19" x="576" y="563.6216">alt</text><text fill="#000000" font-family="sans-serif" font-size="11" font-weight="bold" lengthAdjust="spacing" textLength="150" x="640" y="562.7651">[Access_Token is legal]</text><polygon fill="#181818" points="622,584.8203,612,588.8203,622,592.8203,618,588.8203" style="stroke:#181818;stroke-width:1.0;"/><line style="stroke:#181818;stroke-width:1.0;stroke-dasharray:2.0,2.0;" x1="616" x2="1141.5" y1="588.8203" y2="588.8203"/><text fill="#000000" font-family="sans-serif" font-size="13" font-weight="bold" lengthAdjust="spacing" textLength="18" x="628" y="583.7544">13</text><text fill="#000000" font-family="sans-serif" font-size="13" lengthAdjust="spacing" textLength="151" x="650" y="583.7544">Return user information</text><line style="stroke:#000000;stroke-width:1.0;stroke-dasharray:2.0,2.0;" x1="561" x2="1237" y1="597.8203" y2="597.8203"/><text fill="#000000" font-family="sans-serif" font-size="11" font-weight="bold" lengthAdjust="spacing" textLength="158" x="566" y="608.0308">[Access_Token is illegal]</text><polygon fill="#181818" points="622,628.7578,612,632.7578,622,636.7578,618,632.7578" style="stroke:#181818;stroke-width:1.0;"/><line style="stroke:#181818;stroke-width:1.0;stroke-dasharray:2.0,2.0;" x1="616" x2="1141.5" y1="632.7578" y2="632.7578"/><text fill="#000000" font-family="sans-serif" font-size="13" font-weight="bold" lengthAdjust="spacing" textLength="18" x="628" y="627.6919">14</text><text fill="#000000" font-family="sans-serif" font-size="13" lengthAdjust="spacing" textLength="154" x="650" y="627.6919">Return error information</text><line style="stroke:#000000;stroke-width:1.0;stroke-dasharray:2.0,2.0;" x1="551" x2="1247" y1="648.7578" y2="648.7578"/><text fill="#000000" font-family="sans-serif" font-size="11" font-weight="bold" lengthAdjust="spacing" textLength="172" x="556" y="658.9683">[code or others are illegal]</text><polygon fill="#181818" points="622,679.6953,612,683.6953,622,687.6953,618,683.6953" style="stroke:#181818;stroke-width:1.0;"/><line style="stroke:#181818;stroke-width:1.0;stroke-dasharray:2.0,2.0;" x1="616" x2="1031" y1="683.6953" y2="683.6953"/><text fill="#000000" font-family="sans-serif" font-size="13" font-weight="bold" lengthAdjust="spacing" textLength="18" x="628" y="678.6294">15</text><text fill="#000000" font-family="sans-serif" font-size="13" lengthAdjust="spacing" textLength="168" x="650" y="678.6294">Return access_token error</text><path d="M561,705.6953 L625,705.6953 L625,712.8281 L615,722.8281 L561,722.8281 L561,705.6953 " fill="#EEEEEE" style="stroke:#000000;stroke-width:1.5;"/><rect fill="none" height="116.2031" style="stroke:#000000;stroke-width:1.5;" width="521" x="561" y="705.6953"/><text fill="#000000" font-family="sans-serif" font-size="13" font-weight="bold" lengthAdjust="spacing" textLength="19" x="576" y="718.7622">alt</text><text fill="#000000" font-family="sans-serif" font-size="11" font-weight="bold" lengthAdjust="spacing" textLength="437" x="640" y="717.9058">[user information is obtained and does not exist in overleaf system]</text><line style="stroke:#181818;stroke-width:1.0;" x1="611" x2="653" y1="743.9609" y2="743.9609"/><line style="stroke:#181818;stroke-width:1.0;" x1="653" x2="653" y1="743.9609" y2="756.9609"/><line style="stroke:#181818;stroke-width:1.0;" x1="612" x2="653" y1="756.9609" y2="756.9609"/><polygon fill="#181818" points="622,752.9609,612,756.9609,622,760.9609,618,756.9609" style="stroke:#181818;stroke-width:1.0;"/><text fill="#000000" font-family="sans-serif" font-size="13" font-weight="bold" lengthAdjust="spacing" textLength="18" x="618" y="738.895">16</text><text fill="#000000" font-family="sans-serif" font-size="13" lengthAdjust="spacing" textLength="273" x="640" y="738.895">Create a new user to write to the database</text><line style="stroke:#000000;stroke-width:1.0;stroke-dasharray:2.0,2.0;" x1="561" x2="1082" y1="765.9609" y2="765.9609"/><text fill="#000000" font-family="sans-serif" font-size="11" font-weight="bold" lengthAdjust="spacing" textLength="306" x="566" y="776.1714">[Get the user and the user exists in the system]</text><line style="stroke:#181818;stroke-width:1.0;" x1="611" x2="653" y1="800.8984" y2="800.8984"/><line style="stroke:#181818;stroke-width:1.0;" x1="653" x2="653" y1="800.8984" y2="813.8984"/><line style="stroke:#181818;stroke-width:1.0;" x1="612" x2="653" y1="813.8984" y2="813.8984"/><polygon fill="#181818" points="622,809.8984,612,813.8984,622,817.8984,618,813.8984" style="stroke:#181818;stroke-width:1.0;"/><text fill="#000000" font-family="sans-serif" font-size="13" font-weight="bold" lengthAdjust="spacing" textLength="18" x="618" y="795.8325">17</text><text fill="#000000" font-family="sans-serif" font-size="13" lengthAdjust="spacing" textLength="132" x="640" y="795.8325">Get user information</text><polygon fill="#181818" points="326,846.0313,316,850.0313,326,854.0313,322,850.0313" style="stroke:#181818;stroke-width:1.0;"/><line style="stroke:#181818;stroke-width:1.0;stroke-dasharray:2.0,2.0;" x1="320" x2="605" y1="850.0313" y2="850.0313"/><text fill="#000000" font-family="sans-serif" font-size="13" font-weight="bold" lengthAdjust="spacing" textLength="18" x="332" y="844.9653">18</text><text fill="#000000" font-family="sans-serif" font-size="13" lengthAdjust="spacing" textLength="163" x="354" y="844.9653">Return login success msg</text><line style="stroke:#000000;stroke-width:1.0;stroke-dasharray:2.0,2.0;" x1="247" x2="1257" y1="859.0313" y2="859.0313"/><text fill="#000000" font-family="sans-serif" font-size="11" font-weight="bold" lengthAdjust="spacing" textLength="206" x="252" y="869.2417">[Wrong user name or password]</text><polygon fill="#181818" points="326,889.9688,316,893.9688,326,897.9688,322,893.9688" style="stroke:#181818;stroke-width:1.0;"/><line style="stroke:#181818;stroke-width:1.0;stroke-dasharray:2.0,2.0;" x1="320" x2="1031" y1="893.9688" y2="893.9688"/><text fill="#000000" font-family="sans-serif" font-size="13" font-weight="bold" lengthAdjust="spacing" textLength="18" x="332" y="888.9028">19</text><text fill="#000000" font-family="sans-serif" font-size="13" lengthAdjust="spacing" textLength="140" x="354" y="888.9028">Return error message</text><line style="stroke:#000000;stroke-width:1.0;stroke-dasharray:2.0,2.0;" x1="10" x2="1267" y1="909.9688" y2="909.9688"/><text fill="#000000" font-family="sans-serif" font-size="11" font-weight="bold" lengthAdjust="spacing" textLength="309" x="15" y="920.1792">[In login redirect url: callback URL or client_id or</text><text fill="#000000" font-family="sans-serif" font-size="11" font-weight="bold" lengthAdjust="spacing" textLength="217" x="19" y="932.9839">some other parameter exits error]</text><polygon fill="#181818" points="326,953.7109,316,957.7109,326,961.7109,322,957.7109" style="stroke:#181818;stroke-width:1.0;"/><line style="stroke:#181818;stroke-width:1.0;stroke-dasharray:2.0,2.0;" x1="320" x2="1031" y1="957.7109" y2="957.7109"/><text fill="#000000" font-family="sans-serif" font-size="13" font-weight="bold" lengthAdjust="spacing" textLength="18" x="332" y="952.645">20</text><text fill="#000000" font-family="sans-serif" font-size="13" lengthAdjust="spacing" textLength="125" x="354" y="952.645">Return error reason</text><polygon fill="#181818" points="55,989.8438,45,993.8438,55,997.8438,51,993.8438" style="stroke:#181818;stroke-width:1.0;"/><line style="stroke:#181818;stroke-width:1.0;stroke-dasharray:2.0,2.0;" x1="49" x2="304" y1="993.8438" y2="993.8438"/><text fill="#000000" font-family="sans-serif" font-size="13" font-weight="bold" lengthAdjust="spacing" textLength="18" x="61" y="988.7778">21</text><text fill="#000000" font-family="sans-serif" font-size="13" lengthAdjust="spacing" textLength="177" x="83" y="988.7778">Inform users of login results</text></g></svg>